<svg xmlns="http://www.w3.org/2000/svg" xmlns:xlink="http://www.w3.org/1999/xlink" version="1.1" style="shape-rendering:geometricPrecision; text-rendering:geometricPrecision; image-rendering:optimizeQuality; fill-rule:evenodd; clip-rule:evenodd" viewBox="47.5 110.5 416 290">
<g><path style="opacity:1" fill="#6fa44a" d="M 47.5,110.5 C 186.167,110.5 324.833,110.5 463.5,110.5C 463.5,207.167 463.5,303.833 463.5,400.5C 324.833,400.5 186.167,400.5 47.5,400.5C 47.5,303.833 47.5,207.167 47.5,110.5 Z"/></g>
<g><path style="opacity:1" fill="#fdd853" d="M 254.5,146.5 C 317.306,182.068 379.639,218.401 441.5,255.5C 379.864,292.323 317.864,328.656 255.5,364.5C 193.171,328.671 131.171,292.338 69.5,255.5C 131.065,218.888 192.732,182.555 254.5,146.5 Z"/></g>
<g><path style="opacity:1" fill="#1356b0" d="M 316.5,260.5 C 293.597,236.886 265.597,223.719 232.5,221C 223.544,219.975 214.71,220.475 206,222.5C 205.235,222.43 204.735,222.097 204.5,221.5C 223.877,195.767 248.877,188.267 279.5,199C 305.264,211.354 317.598,231.854 316.5,260.5 Z"/></g>
<g><path style="opacity:1" fill="#edeeee" d="M 316.5,260.5 C 316.267,267.435 314.767,274.101 312,280.5C 311.303,282.584 310.136,284.251 308.5,285.5C 303.399,277.231 296.733,270.398 288.5,265C 260.024,246.964 229.024,239.798 195.5,243.5C 196.567,235.28 199.567,227.947 204.5,221.5C 204.735,222.097 205.235,222.43 206,222.5C 214.71,220.475 223.544,219.975 232.5,221C 265.597,223.719 293.597,236.886 316.5,260.5 Z"/></g>
<g><path style="opacity:1" fill="#0e55b0" d="M 308.5,285.5 C 296.607,306.123 278.607,316.456 254.5,316.5C 222.256,314.096 202.423,297.096 195,265.5C 194.178,257.988 194.345,250.655 195.5,243.5C 229.024,239.798 260.024,246.964 288.5,265C 296.733,270.398 303.399,277.231 308.5,285.5 Z"/></g>
</svg>