<svg xmlns="http://www.w3.org/2000/svg" xmlns:xlink="http://www.w3.org/1999/xlink" version="1.1" style="shape-rendering:geometricPrecision; text-rendering:geometricPrecision; image-rendering:optimizeQuality; fill-rule:evenodd; clip-rule:evenodd" viewBox="-0.5 86.44 512 338.13">
<g><path style="opacity:1" fill="#104e95" d="M 42.5,86.5 C 39.6699,87.5103 37.1699,89.1769 35,91.5C 33.6746,96.4012 33.1746,101.401 33.5,106.5C 31.9582,105.699 30.2915,105.366 28.5,105.5C 27.6811,100.782 26.0145,100.448 23.5,104.5C 22.3112,105.429 20.9778,105.762 19.5,105.5C 20.6427,108.684 21.3094,112.017 21.5,115.5C 24.8094,114.373 28.1427,114.373 31.5,115.5C 31.3379,113.473 31.5045,111.473 32,109.5C 32.3826,108.944 32.8826,108.611 33.5,108.5C 33.5,116.833 33.5,125.167 33.5,133.5C 30.257,132.961 27.757,131.294 26,128.5C 24.9745,131.693 22.8078,133.026 19.5,132.5C 20.6009,136.056 21.6009,139.723 22.5,143.5C 23.7481,142.96 24.9148,142.293 26,141.5C 27.3374,142.765 28.8374,143.265 30.5,143C 31.2638,140.931 31.7638,138.764 32,136.5C 32.3826,135.944 32.8826,135.611 33.5,135.5C 33.5,143.833 33.5,152.167 33.5,160.5C 32.1266,160.657 30.7932,160.49 29.5,160C 27.6493,155.756 25.6493,155.589 23.5,159.5C 22.3112,160.429 20.9778,160.762 19.5,160.5C 21.017,163.587 21.6837,166.921 21.5,170.5C 24.8333,169.167 28.1667,169.167 31.5,170.5C 31.3379,168.473 31.5045,166.473 32,164.5C 32.3826,163.944 32.8826,163.611 33.5,163.5C 33.5,171.833 33.5,180.167 33.5,188.5C 30.2796,188.058 27.9463,186.391 26.5,183.5C 24.1502,185.999 21.4836,187.999 18.5,189.5C 20.7672,192.029 22.1006,195.029 22.5,198.5C 23.8333,197.833 25.1667,197.167 26.5,196.5C 27.6199,197.833 28.9532,198.333 30.5,198C 31.2638,195.931 31.7638,193.764 32,191.5C 32.3826,190.944 32.8826,190.611 33.5,190.5C 33.5,198.833 33.5,207.167 33.5,215.5C 32.1266,215.657 30.7932,215.49 29.5,215C 28.8811,213.243 27.7144,212.076 26,211.5C 24.7005,213.459 22.8671,214.626 20.5,215C 19.9781,215.561 19.6448,216.228 19.5,217C 21.1775,219.547 21.8441,222.38 21.5,225.5C 24.538,224.474 27.538,224.308 30.5,225C 30.9496,222.467 31.9496,220.3 33.5,218.5C 33.5,225.833 33.5,233.167 33.5,240.5C 89.0025,240.168 144.336,240.501 199.5,241.5C 132.833,241.5 66.1667,241.5 -0.5,241.5C -0.5,191.833 -0.5,142.167 -0.5,92.5C 0.977392,90.193 2.97739,88.3597 5.5,87C 17.8288,86.5001 30.1622,86.3335 42.5,86.5 Z"/></g>
<g><path style="opacity:1" fill="#0f54a4" d="M 42.5,86.5 C 101.833,86.5 161.167,86.5 220.5,86.5C 220.5,97.1667 220.5,107.833 220.5,118.5C 220.5,128.167 220.5,137.833 220.5,147.5C 220.5,158.5 220.5,169.5 220.5,180.5C 220.5,189.833 220.5,199.167 220.5,208.5C 220.876,217.235 220.376,225.902 219,234.5C 216.985,237.412 214.485,239.745 211.5,241.5C 207.5,241.5 203.5,241.5 199.5,241.5C 144.336,240.501 89.0025,240.168 33.5,240.5C 33.5,233.167 33.5,225.833 33.5,218.5C 33.5,217.5 33.5,216.5 33.5,215.5C 33.5,207.167 33.5,198.833 33.5,190.5C 33.5,189.833 33.5,189.167 33.5,188.5C 33.5,180.167 33.5,171.833 33.5,163.5C 33.5,162.5 33.5,161.5 33.5,160.5C 33.5,152.167 33.5,143.833 33.5,135.5C 33.5,134.833 33.5,134.167 33.5,133.5C 33.5,125.167 33.5,116.833 33.5,108.5C 33.5,107.833 33.5,107.167 33.5,106.5C 33.1746,101.401 33.6746,96.4012 35,91.5C 37.1699,89.1769 39.6699,87.5103 42.5,86.5 Z"/></g>
<g><path style="opacity:1" fill="#e02424" d="M 220.5,86.5 C 315.501,86.3333 410.501,86.5 505.5,87C 508.023,88.3597 510.023,90.193 511.5,92.5C 511.5,101.167 511.5,109.833 511.5,118.5C 414.5,118.5 317.5,118.5 220.5,118.5C 220.5,107.833 220.5,97.1667 220.5,86.5 Z"/></g>
<g><path style="opacity:1" fill="#f4f6fa" d="M 33.5,106.5 C 33.5,107.167 33.5,107.833 33.5,108.5C 32.8826,108.611 32.3826,108.944 32,109.5C 31.5045,111.473 31.3379,113.473 31.5,115.5C 28.1427,114.373 24.8094,114.373 21.5,115.5C 21.3094,112.017 20.6427,108.684 19.5,105.5C 20.9778,105.762 22.3112,105.429 23.5,104.5C 26.0145,100.448 27.6811,100.782 28.5,105.5C 30.2915,105.366 31.9582,105.699 33.5,106.5 Z"/></g>
<g><path style="opacity:1" fill="#f1f5f9" d="M 58.5,101.5 C 61.2514,103.721 64.2514,105.721 67.5,107.5C 65.0136,109.578 64.0136,112.245 64.5,115.5C 61.1906,114.373 57.8573,114.373 54.5,115.5C 54.8956,112.518 54.2289,109.851 52.5,107.5C 53.3805,106.029 54.7139,105.196 56.5,105C 57.8228,104.184 58.4894,103.017 58.5,101.5 Z"/></g>
<g><path style="opacity:1" fill="#f1f5fa" d="M 159.5,101.5 C 161.947,103.577 164.78,105.244 168,106.5C 166.878,109.23 166.378,112.23 166.5,115.5C 163.143,114.373 159.809,114.373 156.5,115.5C 156.986,112.245 155.986,109.578 153.5,107.5C 154.824,106.065 156.49,105.065 158.5,104.5C 159.127,103.583 159.461,102.583 159.5,101.5 Z"/></g>
<g><path style="opacity:1" fill="#f4f7fb" d="M 193.5,101.5 C 195.833,103.498 198.5,104.832 201.5,105.5C 200.357,108.684 199.691,112.017 199.5,115.5C 196.191,114.373 192.857,114.373 189.5,115.5C 189.896,112.518 189.229,109.851 187.5,107.5C 188.381,106.029 189.714,105.196 191.5,105C 192.305,103.887 192.972,102.721 193.5,101.5 Z"/></g>
<g><path style="opacity:1" fill="#f7fafc" d="M 92.5,101.5 C 94.5638,101.762 95.8971,102.929 96.5,105C 97.7932,105.49 99.1266,105.657 100.5,105.5C 98.983,108.587 98.3163,111.921 98.5,115.5C 95.1667,114.167 91.8333,114.167 88.5,115.5C 88.6837,111.921 88.017,108.587 86.5,105.5C 89.8559,106.138 91.8559,104.804 92.5,101.5 Z"/></g>
<g><path style="opacity:1" fill="#f7f9fc" d="M 126.5,101.5 C 128.844,103.833 131.511,105.833 134.5,107.5C 132.771,109.851 132.104,112.518 132.5,115.5C 129.143,114.373 125.809,114.373 122.5,115.5C 122.684,111.921 122.017,108.587 120.5,105.5C 123.522,105.658 125.522,104.325 126.5,101.5 Z"/></g>
<g><path style="opacity:1" fill="#f5f8fb" d="M 42.5,115.5 C 44.8217,117.412 47.4884,118.745 50.5,119.5C 48.983,122.587 48.3163,125.921 48.5,129.5C 45.1667,128.167 41.8333,128.167 38.5,129.5C 38.6837,125.921 38.017,122.587 36.5,119.5C 39.8559,120.138 41.8559,118.804 42.5,115.5 Z"/></g>
<g><path style="opacity:1" fill="#f4f7fb" d="M 75.5,115.5 C 78.1142,115.277 79.7809,116.444 80.5,119C 81.7932,119.49 83.1266,119.657 84.5,119.5C 82.983,122.587 82.3163,125.921 82.5,129.5C 79.1667,128.167 75.8333,128.167 72.5,129.5C 72.6837,125.921 72.017,122.587 70.5,119.5C 73.5465,119.817 75.2132,118.484 75.5,115.5 Z"/></g>
<g><path style="opacity:1" fill="#f0f4f9" d="M 109.5,115.5 C 112.5,115.167 113.833,116.5 113.5,119.5C 115.167,119.5 116.833,119.5 118.5,119.5C 116.329,122.339 114.996,125.673 114.5,129.5C 111.826,128.483 109.16,128.316 106.5,129C 105.684,125.731 104.684,122.564 103.5,119.5C 106.856,120.138 108.856,118.804 109.5,115.5 Z"/></g>
<g><path style="opacity:1" fill="#f4f7fb" d="M 143.5,115.5 C 145.822,117.412 148.488,118.745 151.5,119.5C 149.983,122.587 149.316,125.921 149.5,129.5C 146.167,128.167 142.833,128.167 139.5,129.5C 139.684,125.921 139.017,122.587 137.5,119.5C 140.856,120.138 142.856,118.804 143.5,115.5 Z"/></g>
<g><path style="opacity:1" fill="#f3f6fa" d="M 176.5,115.5 C 179.114,115.277 180.781,116.444 181.5,119C 182.793,119.49 184.127,119.657 185.5,119.5C 183.983,122.587 183.316,125.921 183.5,129.5C 180.167,128.167 176.833,128.167 173.5,129.5C 173.844,126.38 173.177,123.547 171.5,121C 173.484,119.411 175.151,117.578 176.5,115.5 Z"/></g>
<g><path style="opacity:1" fill="#fef3ea" d="M 220.5,118.5 C 317.5,118.5 414.5,118.5 511.5,118.5C 511.5,128.167 511.5,137.833 511.5,147.5C 414.5,147.5 317.5,147.5 220.5,147.5C 220.5,137.833 220.5,128.167 220.5,118.5 Z"/></g>
<g><path style="opacity:1" fill="#f1f4f9" d="M 33.5,133.5 C 33.5,134.167 33.5,134.833 33.5,135.5C 32.8826,135.611 32.3826,135.944 32,136.5C 31.7638,138.764 31.2638,140.931 30.5,143C 28.8374,143.265 27.3374,142.765 26,141.5C 24.9148,142.293 23.7481,142.96 22.5,143.5C 21.6009,139.723 20.6009,136.056 19.5,132.5C 22.8078,133.026 24.9745,131.693 26,128.5C 27.757,131.294 30.257,132.961 33.5,133.5 Z"/></g>
<g><path style="opacity:1" fill="#eff3f9" d="M 59.5,128.5 C 61.8199,130.99 64.4865,132.99 67.5,134.5C 65.2328,137.029 63.8994,140.029 63.5,143.5C 62.452,142.617 61.2853,141.95 60,141.5C 58.6068,142.615 57.1068,143.115 55.5,143C 54.9722,139.982 53.9722,137.149 52.5,134.5C 55.4207,133.203 57.754,131.203 59.5,128.5 Z"/></g>
<g><path style="opacity:1" fill="#f1f5f9" d="M 92.5,128.5 C 95.0171,130.85 97.6837,133.017 100.5,135C 99.1328,137.654 98.1328,140.487 97.5,143.5C 94.9468,140.956 92.4468,140.956 90,143.5C 88.9567,140.625 87.79,137.792 86.5,135C 87.385,132.843 89.0516,132.01 91.5,132.5C 91.4326,131.041 91.7659,129.708 92.5,128.5 Z"/></g>
<g><path style="opacity:1" fill="#eff3f9" d="M 126.5,128.5 C 128.912,128.694 129.912,130.027 129.5,132.5C 131.948,132.01 133.615,132.843 134.5,135C 133.045,137.248 132.212,139.748 132,142.5C 130.32,143.603 128.82,143.27 127.5,141.5C 126.15,142.95 124.484,143.617 122.5,143.5C 122.844,140.38 122.177,137.547 120.5,135C 123.044,133.405 125.044,131.238 126.5,128.5 Z"/></g>
<g><path style="opacity:1" fill="#eef3f8" d="M 160.5,128.5 C 162.82,130.99 165.487,132.99 168.5,134.5C 167.275,137.632 165.942,140.632 164.5,143.5C 163.252,142.96 162.085,142.293 161,141.5C 159.915,142.293 158.748,142.96 157.5,143.5C 157.101,140.029 155.767,137.029 153.5,134.5C 156.421,133.203 158.754,131.203 160.5,128.5 Z"/></g>
<g><path style="opacity:1" fill="#f1f5f9" d="M 193.5,128.5 C 195.564,128.762 196.897,129.929 197.5,132C 198.793,132.49 200.127,132.657 201.5,132.5C 200.399,136.056 199.399,139.723 198.5,143.5C 197.167,142.833 195.833,142.167 194.5,141.5C 193.38,142.833 192.047,143.333 190.5,143C 189.972,139.982 188.972,137.149 187.5,134.5C 188.824,133.065 190.49,132.065 192.5,131.5C 193.127,130.583 193.461,129.583 193.5,128.5 Z"/></g>
<g><path style="opacity:1" fill="#f5f7fb" d="M 42.5,142.5 C 44.5638,142.762 45.8971,143.929 46.5,146C 47.7932,146.49 49.1266,146.657 50.5,146.5C 49.3573,149.684 48.6906,153.017 48.5,156.5C 45.1667,155.167 41.8333,155.167 38.5,156.5C 38.8956,153.518 38.2289,150.851 36.5,148.5C 37.3805,147.029 38.7139,146.196 40.5,146C 41.305,144.887 41.9717,143.721 42.5,142.5 Z"/></g>
<g><path style="opacity:1" fill="#f5f8fb" d="M 76.5,142.5 C 78.8445,144.833 81.5111,146.833 84.5,148.5C 82.7711,150.851 82.1044,153.518 82.5,156.5C 79.1427,155.373 75.8094,155.373 72.5,156.5C 72.3094,153.017 71.6427,149.684 70.5,146.5C 73.5221,146.658 75.5221,145.325 76.5,142.5 Z"/></g>
<g><path style="opacity:1" fill="#f6f9fb" d="M 109.5,142.5 C 112.251,144.721 115.251,146.721 118.5,148.5C 116.014,150.578 115.014,153.245 115.5,156.5C 112.5,155.167 109.5,155.167 106.5,156.5C 106.986,153.245 105.986,150.578 103.5,148.5C 104.824,147.065 106.49,146.065 108.5,145.5C 109.127,144.583 109.461,143.583 109.5,142.5 Z"/></g>
<g><path style="opacity:1" fill="#f5f8fb" d="M 143.5,142.5 C 145.833,144.498 148.5,145.832 151.5,146.5C 150.357,149.684 149.691,153.017 149.5,156.5C 146.191,155.373 142.857,155.373 139.5,156.5C 139.896,153.518 139.229,150.851 137.5,148.5C 138.381,147.029 139.714,146.196 141.5,146C 142.305,144.887 142.972,143.721 143.5,142.5 Z"/></g>
<g><path style="opacity:1" fill="#f4f7fb" d="M 177.5,142.5 C 179.844,144.833 182.511,146.833 185.5,148.5C 183.771,150.851 183.104,153.518 183.5,156.5C 180.167,155.167 176.833,155.167 173.5,156.5C 173.309,153.017 172.643,149.684 171.5,146.5C 174.856,147.138 176.856,145.804 177.5,142.5 Z"/></g>
<g><path style="opacity:1" fill="#e02826" d="M 220.5,147.5 C 317.5,147.5 414.5,147.5 511.5,147.5C 511.5,158.5 511.5,169.5 511.5,180.5C 414.5,180.5 317.5,180.5 220.5,180.5C 220.5,169.5 220.5,158.5 220.5,147.5 Z"/></g>
<g><path style="opacity:1" fill="#f4f7fa" d="M 33.5,160.5 C 33.5,161.5 33.5,162.5 33.5,163.5C 32.8826,163.611 32.3826,163.944 32,164.5C 31.5045,166.473 31.3379,168.473 31.5,170.5C 28.1667,169.167 24.8333,169.167 21.5,170.5C 21.6837,166.921 21.017,163.587 19.5,160.5C 20.9778,160.762 22.3112,160.429 23.5,159.5C 25.6493,155.589 27.6493,155.756 29.5,160C 30.7932,160.49 32.1266,160.657 33.5,160.5 Z"/></g>
<g><path style="opacity:1" fill="#f1f5fa" d="M 58.5,156.5 C 61.2514,158.721 64.2514,160.721 67.5,162.5C 65.0136,164.578 64.0136,167.245 64.5,170.5C 61.2421,169.538 58.0754,169.205 55,169.5C 54.8485,166.881 54.0152,164.547 52.5,162.5C 53.3805,161.029 54.7139,160.196 56.5,160C 57.305,158.887 57.9717,157.721 58.5,156.5 Z"/></g>
<g><path style="opacity:1" fill="#f6f8fb" d="M 92.5,156.5 C 94.8217,158.412 97.4884,159.745 100.5,160.5C 98.983,163.587 98.3163,166.921 98.5,170.5C 95.1667,169.167 91.8333,169.167 88.5,170.5C 88.6837,166.921 88.017,163.587 86.5,160.5C 89.8559,161.138 91.8559,159.804 92.5,156.5 Z"/></g>
<g><path style="opacity:1" fill="#f5f8fb" d="M 125.5,156.5 C 128.114,156.277 129.781,157.444 130.5,160C 131.793,160.49 133.127,160.657 134.5,160.5C 132.983,163.587 132.316,166.921 132.5,170.5C 129.167,169.167 125.833,169.167 122.5,170.5C 122.684,166.921 122.017,163.587 120.5,160.5C 123.546,160.817 125.213,159.484 125.5,156.5 Z"/></g>
<g><path style="opacity:1" fill="#f2f5fa" d="M 159.5,156.5 C 162.5,156.167 163.833,157.5 163.5,160.5C 165.665,160.116 167.332,160.783 168.5,162.5C 166.985,164.547 166.151,166.881 166,169.5C 162.891,169.344 159.725,169.677 156.5,170.5C 156.93,167.138 155.93,164.305 153.5,162C 155.059,161.02 156.726,160.187 158.5,159.5C 159.127,158.583 159.461,157.583 159.5,156.5 Z"/></g>
<g><path style="opacity:1" fill="#f5f7fb" d="M 193.5,156.5 C 195.822,158.412 198.488,159.745 201.5,160.5C 199.983,163.587 199.316,166.921 199.5,170.5C 196.167,169.167 192.833,169.167 189.5,170.5C 189.684,166.921 189.017,163.587 187.5,160.5C 190.856,161.138 192.856,159.804 193.5,156.5 Z"/></g>
<g><path style="opacity:1" fill="#f0f4f9" d="M 41.5,170.5 C 44.4824,171.392 47.3157,172.725 50,174.5C 48.9843,177.607 48.4843,180.94 48.5,184.5C 46.5165,184.617 44.8498,183.95 43.5,182.5C 42.1502,183.95 40.4835,184.617 38.5,184.5C 38.8441,181.38 38.1775,178.547 36.5,176C 37.385,173.843 39.0516,173.01 41.5,173.5C 41.5,172.5 41.5,171.5 41.5,170.5 Z"/></g>
<g><path style="opacity:1" fill="#f0f4f9" d="M 75.5,170.5 C 78.0668,171.673 80.7334,172.839 83.5,174C 84.0219,174.561 84.3552,175.228 84.5,176C 83.1285,178.515 82.1285,181.182 81.5,184C 78.538,183.308 75.538,183.474 72.5,184.5C 72.8441,181.38 72.1775,178.547 70.5,176C 72.4843,174.411 74.151,172.578 75.5,170.5 Z"/></g>
<g><path style="opacity:1" fill="#f2f5fa" d="M 110.5,169.5 C 112.82,171.99 115.487,173.99 118.5,175.5C 116.233,178.029 114.899,181.029 114.5,184.5C 113.252,183.96 112.085,183.293 111,182.5C 109.915,183.293 108.748,183.96 107.5,184.5C 107.101,181.029 105.767,178.029 103.5,175.5C 106.421,174.203 108.754,172.203 110.5,169.5 Z"/></g>
<g><path style="opacity:1" fill="#f2f5fa" d="M 143.5,170.5 C 145.826,171.953 148.326,173.286 151,174.5C 150.286,177.712 149.453,181.045 148.5,184.5C 146.06,182.078 143.726,182.078 141.5,184.5C 140.914,184.291 140.414,183.957 140,183.5C 139.788,180.748 138.955,178.248 137.5,176C 139.659,174.407 141.659,172.573 143.5,170.5 Z"/></g>
<g><path style="opacity:1" fill="#f0f4f9" d="M 176.5,170.5 C 177.833,170.5 179.167,170.5 180.5,170.5C 180.5,171.5 180.5,172.5 180.5,173.5C 182.948,173.01 184.615,173.843 185.5,176C 183.823,178.547 183.156,181.38 183.5,184.5C 181.516,184.617 179.85,183.95 178.5,182.5C 177.15,183.95 175.484,184.617 173.5,184.5C 173.844,181.38 173.177,178.547 171.5,176C 173.484,174.411 175.151,172.578 176.5,170.5 Z"/></g>
<g><path style="opacity:1" fill="#fef7ed" d="M 220.5,180.5 C 317.5,180.5 414.5,180.5 511.5,180.5C 511.5,189.833 511.5,199.167 511.5,208.5C 414.5,208.5 317.5,208.5 220.5,208.5C 220.5,199.167 220.5,189.833 220.5,180.5 Z"/></g>
<g><path style="opacity:1" fill="#eff3f8" d="M 33.5,188.5 C 33.5,189.167 33.5,189.833 33.5,190.5C 32.8826,190.611 32.3826,190.944 32,191.5C 31.7638,193.764 31.2638,195.931 30.5,198C 28.9532,198.333 27.6199,197.833 26.5,196.5C 25.1667,197.167 23.8333,197.833 22.5,198.5C 22.1006,195.029 20.7672,192.029 18.5,189.5C 21.4836,187.999 24.1502,185.999 26.5,183.5C 27.9463,186.391 30.2796,188.058 33.5,188.5 Z"/></g>
<g><path style="opacity:1" fill="#f1f5f9" d="M 58.5,183.5 C 61.3098,185.742 64.3098,187.742 67.5,189.5C 65.2328,192.029 63.8994,195.029 63.5,198.5C 60.784,196.48 57.784,196.146 54.5,197.5C 54.8956,194.518 54.2289,191.851 52.5,189.5C 53.8237,188.065 55.4904,187.065 57.5,186.5C 58.1272,185.583 58.4606,184.583 58.5,183.5 Z"/></g>
<g><path style="opacity:1" fill="#f5f8fb" d="M 92.5,183.5 C 94.5996,185.596 97.0996,187.263 100,188.5C 99.0811,191.284 98.5811,194.284 98.5,197.5C 95.1667,196.167 91.8333,196.167 88.5,197.5C 88.8956,194.518 88.2289,191.851 86.5,189.5C 87.3805,188.029 88.7139,187.196 90.5,187C 91.305,185.887 91.9717,184.721 92.5,183.5 Z"/></g>
<g><path style="opacity:1" fill="#f1f4f9" d="M 126.5,183.5 C 128.844,185.833 131.511,187.833 134.5,189.5C 133.028,192.149 132.028,194.982 131.5,198C 129.953,198.333 128.62,197.833 127.5,196.5C 126.167,197.167 124.833,197.833 123.5,198.5C 122.601,194.723 121.601,191.056 120.5,187.5C 123.856,188.138 125.856,186.804 126.5,183.5 Z"/></g>
<g><path style="opacity:1" fill="#eff3f9" d="M 160.5,183.5 C 162.82,185.99 165.487,187.99 168.5,189.5C 167.275,192.632 165.942,195.632 164.5,198.5C 162.167,195.833 159.833,195.833 157.5,198.5C 157.101,195.029 155.767,192.029 153.5,189.5C 156.421,188.203 158.754,186.203 160.5,183.5 Z"/></g>
<g><path style="opacity:1" fill="#f4f7fb" d="M 193.5,183.5 C 195.833,185.498 198.5,186.832 201.5,187.5C 200.357,190.684 199.691,194.017 199.5,197.5C 196.191,196.373 192.857,196.373 189.5,197.5C 189.896,194.518 189.229,191.851 187.5,189.5C 188.668,187.783 190.335,187.116 192.5,187.5C 192.433,186.041 192.766,184.708 193.5,183.5 Z"/></g>
<g><path style="opacity:1" fill="#f5f7fb" d="M 76.5,197.5 C 78.8445,199.833 81.5111,201.833 84.5,203.5C 82.7711,205.851 82.1044,208.518 82.5,211.5C 79.1427,210.373 75.8094,210.373 72.5,211.5C 72.3094,208.017 71.6427,204.684 70.5,201.5C 73.5221,201.658 75.5221,200.325 76.5,197.5 Z"/></g>
<g><path style="opacity:1" fill="#f1f5fa" d="M 109.5,197.5 C 112.251,199.721 115.251,201.721 118.5,203.5C 116.014,205.578 115.014,208.245 115.5,211.5C 112.275,210.677 109.109,210.344 106,210.5C 105.849,207.881 105.015,205.547 103.5,203.5C 104.381,202.029 105.714,201.196 107.5,201C 108.823,200.184 109.489,199.017 109.5,197.5 Z"/></g>
<g><path style="opacity:1" fill="#f6f9fb" d="M 143.5,197.5 C 145.833,199.498 148.5,200.832 151.5,201.5C 149.983,204.587 149.316,207.921 149.5,211.5C 146.191,210.373 142.857,210.373 139.5,211.5C 139.896,208.518 139.229,205.851 137.5,203.5C 138.381,202.029 139.714,201.196 141.5,201C 142.305,199.887 142.972,198.721 143.5,197.5 Z"/></g>
<g><path style="opacity:1" fill="#f8fafc" d="M 42.5,197.5 C 44.5638,197.762 45.8971,198.929 46.5,201C 47.7932,201.49 49.1266,201.657 50.5,201.5C 48.983,204.587 48.3163,207.921 48.5,211.5C 45.1667,210.167 41.8333,210.167 38.5,211.5C 38.6837,207.921 38.017,204.587 36.5,201.5C 39.8559,202.138 41.8559,200.804 42.5,197.5 Z"/></g>
<g><path style="opacity:1" fill="#f7fafc" d="M 177.5,197.5 C 179.564,197.762 180.897,198.929 181.5,201C 182.793,201.49 184.127,201.657 185.5,201.5C 183.983,204.587 183.316,207.921 183.5,211.5C 180.167,210.167 176.833,210.167 173.5,211.5C 173.684,207.921 173.017,204.587 171.5,201.5C 174.856,202.138 176.856,200.804 177.5,197.5 Z"/></g>
<g><path style="opacity:1" fill="#e02826" d="M 220.5,208.5 C 317.5,208.5 414.5,208.5 511.5,208.5C 511.5,219.5 511.5,230.5 511.5,241.5C 411.5,241.5 311.5,241.5 211.5,241.5C 214.485,239.745 216.985,237.412 219,234.5C 220.376,225.902 220.876,217.235 220.5,208.5 Z"/></g>
<g><path style="opacity:1" fill="#f2f5f9" d="M 33.5,215.5 C 33.5,216.5 33.5,217.5 33.5,218.5C 31.9496,220.3 30.9496,222.467 30.5,225C 27.538,224.308 24.538,224.474 21.5,225.5C 21.8441,222.38 21.1775,219.547 19.5,217C 19.6448,216.228 19.9781,215.561 20.5,215C 22.8671,214.626 24.7005,213.459 26,211.5C 27.7144,212.076 28.8811,213.243 29.5,215C 30.7932,215.49 32.1266,215.657 33.5,215.5 Z"/></g>
<g><path style="opacity:1" fill="#eff3f9" d="M 58.5,211.5 C 61.4896,213.233 64.4896,215.067 67.5,217C 66.9915,218.169 66.1581,219.002 65,219.5C 64.8078,221.577 64.3078,223.577 63.5,225.5C 60.8262,224.483 58.1596,224.316 55.5,225C 54.6842,221.731 53.6842,218.564 52.5,215.5C 55.8559,216.138 57.8559,214.804 58.5,211.5 Z"/></g>
<g><path style="opacity:1" fill="#f2f5fa" d="M 92.5,211.5 C 94.8259,212.953 97.3259,214.286 100,215.5C 98.9843,218.607 98.4843,221.94 98.5,225.5C 95.1667,224.167 91.8333,224.167 88.5,225.5C 88.6837,221.921 88.017,218.587 86.5,215.5C 89.8559,216.138 91.8559,214.804 92.5,211.5 Z"/></g>
<g><path style="opacity:1" fill="#f2f5fa" d="M 125.5,211.5 C 128.114,211.277 129.781,212.444 130.5,215C 131.793,215.49 133.127,215.657 134.5,215.5C 132.983,218.587 132.316,221.921 132.5,225.5C 129.167,224.167 125.833,224.167 122.5,225.5C 122.844,222.38 122.177,219.547 120.5,217C 122.484,215.411 124.151,213.578 125.5,211.5 Z"/></g>
<g><path style="opacity:1" fill="#eef2f8" d="M 159.5,211.5 C 162.114,211.277 163.781,212.444 164.5,215C 165.793,215.49 167.127,215.657 168.5,215.5C 167.316,218.564 166.316,221.731 165.5,225C 162.84,224.316 160.174,224.483 157.5,225.5C 156.692,223.577 156.192,221.577 156,219.5C 154.842,219.002 154.009,218.169 153.5,217C 155.916,215.592 157.916,213.758 159.5,211.5 Z"/></g>
<g><path style="opacity:1" fill="#f2f5fa" d="M 193.5,211.5 C 195.826,212.953 198.326,214.286 201,215.5C 199.984,218.607 199.484,221.94 199.5,225.5C 196.462,224.474 193.462,224.308 190.5,225C 189.684,221.731 188.684,218.564 187.5,215.5C 190.856,216.138 192.856,214.804 193.5,211.5 Z"/></g>
<g><path style="opacity:1" fill="#fef7ed" d="M -0.5,241.5 C 66.1667,241.5 132.833,241.5 199.5,241.5C 203.5,241.5 207.5,241.5 211.5,241.5C 311.5,241.5 411.5,241.5 511.5,241.5C 511.5,250.833 511.5,260.167 511.5,269.5C 340.833,269.5 170.167,269.5 -0.5,269.5C -0.5,260.167 -0.5,250.833 -0.5,241.5 Z"/></g>
<g><path style="opacity:1" fill="#d53834" d="M -0.5,269.5 C 170.167,269.5 340.833,269.5 511.5,269.5C 511.5,269.833 511.5,270.167 511.5,270.5C 351.833,270.5 192.167,270.5 32.5,270.5C 32.5,280.833 32.5,291.167 32.5,301.5C 192.167,301.5 351.833,301.5 511.5,301.5C 511.5,301.833 511.5,302.167 511.5,302.5C 340.833,302.5 170.167,302.5 -0.5,302.5C -0.5,291.5 -0.5,280.5 -0.5,269.5 Z"/></g>
<g><path style="opacity:1" fill="#df2423" d="M 511.5,270.5 C 511.5,280.833 511.5,291.167 511.5,301.5C 351.833,301.5 192.167,301.5 32.5,301.5C 32.5,291.167 32.5,280.833 32.5,270.5C 192.167,270.5 351.833,270.5 511.5,270.5 Z"/></g>
<g><path style="opacity:1" fill="#fef7ed" d="M -0.5,302.5 C 170.167,302.5 340.833,302.5 511.5,302.5C 511.5,311.833 511.5,321.167 511.5,330.5C 340.833,330.5 170.167,330.5 -0.5,330.5C -0.5,321.167 -0.5,311.833 -0.5,302.5 Z"/></g>
<g><path style="opacity:1" fill="#d53933" d="M -0.5,330.5 C 170.167,330.5 340.833,330.5 511.5,330.5C 511.5,330.833 511.5,331.167 511.5,331.5C 351.833,331.5 192.167,331.5 32.5,331.5C 32.5,341.833 32.5,352.167 32.5,362.5C 192.167,362.5 351.833,362.5 511.5,362.5C 511.5,362.833 511.5,363.167 511.5,363.5C 340.833,363.5 170.167,363.5 -0.5,363.5C -0.5,352.5 -0.5,341.5 -0.5,330.5 Z"/></g>
<g><path style="opacity:1" fill="#df2423" d="M 511.5,331.5 C 511.5,341.833 511.5,352.167 511.5,362.5C 351.833,362.5 192.167,362.5 32.5,362.5C 32.5,352.167 32.5,341.833 32.5,331.5C 192.167,331.5 351.833,331.5 511.5,331.5 Z"/></g>
<g><path style="opacity:1" fill="#fef7ed" d="M -0.5,363.5 C 170.167,363.5 340.833,363.5 511.5,363.5C 511.5,372.833 511.5,382.167 511.5,391.5C 340.833,391.5 170.167,391.5 -0.5,391.5C -0.5,382.167 -0.5,372.833 -0.5,363.5 Z"/></g>
<g><path style="opacity:1" fill="#d44239" d="M -0.5,391.5 C 170.167,391.5 340.833,391.5 511.5,391.5C 511.5,391.833 511.5,392.167 511.5,392.5C 351.833,392.5 192.167,392.5 32.5,392.5C 32.3336,400.84 32.5003,409.173 33,417.5C 34.8659,421.216 37.6992,423.55 41.5,424.5C 29.4954,424.667 17.4954,424.5 5.5,424C 2.97739,422.64 0.977392,420.807 -0.5,418.5C -0.5,409.5 -0.5,400.5 -0.5,391.5 Z"/></g>
<g><path style="opacity:1" fill="#e02424" d="M 511.5,392.5 C 511.5,401.167 511.5,409.833 511.5,418.5C 510.023,420.807 508.023,422.64 505.5,424C 350.834,424.5 196.167,424.667 41.5,424.5C 37.6992,423.55 34.8659,421.216 33,417.5C 32.5003,409.173 32.3336,400.84 32.5,392.5C 192.167,392.5 351.833,392.5 511.5,392.5 Z"/></g>
</svg>